#!OML:ASF H:\ManfredETheater\Project 1\Capture day 1\Session 1\subject.ASF
:FULLY-SPECIFIED
:DEGREES
65
root 13.0254 12.7758 16.2662 -179.321 -78.2058 203.114
lowerback 56.9041 0.0548158 1.95673
upperback 12.4428 -1.6964 2.06296
thorax -7.25291 -2.02844 2.26726
lowerneck 1.46391 -11.1297 -13.6051
upperneck -11.0296 -14.3379 18.8423
head -0.987117 -7.6595 7.85851
rclavicle -1.66979e-014 4.53229e-014
rhumerus -9.34522 -6.52469 -72.7746
rradius 45.5658
rwrist -12.0514
rhand -24.1614 -6.65051
rfingers 7.12502
rthumb 2.32147 -36.6176
lclavicle -1.66979e-014 4.53229e-014
lhumerus -12.0153 -12.1865 64.6278
lradius 130.225
lwrist -3.84886
lhand -29.4066 -2.82097
lfingers 7.12502
lthumb -2.7444 27.1411
rfemur -68.0021 -31.4901 -0.0907202
rtibia 67.4007
rfoot -9.95743 -18.578
rtoes -22.698
lfemur -93.8226 15.0666 -23.3044
ltibia 95.9541
lfoot -21.5005 -27.3545
ltoes 23.9194
66
root 12.941 12.7575 15.8299 -178.636 -78.9903 202.975
lowerback 57.3527 -0.188356 2.03116
upperback 12.4012 -1.9187 1.9154
thorax -7.32156 -2.10478 2.17521
lowerneck 1.49321 -11.0776 -13.6376
upperneck -11.1511 -14.228 19.3531
head -0.992836 -7.63206 8.03446
rclavicle -3.97569e-014 4.48756e-014
rhumerus -10.59 -5.96397 -73.2944
rradius 47.2052
rwrist -13.317
rhand -23.6032 -5.61403
rfingers 7.12502
rthumb 2.86061 -35.5746
lclavicle -3.97569e-014 4.48756e-014
lhumerus -9.72321 -10.2954 61.604
lradius 129.312
lwrist -2.21015
lhand -29.2996 -2.38576
lfingers 7.12502
lthumb -2.64102 27.5776
rfemur -67.4178 -31.4011 -2.40083
rtibia 64.0323
rfoot -8.95327 -18.6923
rtoes -22.8978
lfemur -94.0785 16.4937 -22.4807
ltibia 96.0961
lfoot -21.8629 -29.0476
ltoes 23.2901
67
root 12.8521 12.7427 15.3966 -176.826 -79.798 201.502
lowerback 58.0163 -0.466412 2.0315
upperback 12.2922 -2.22092 1.69799
thorax -7.47662 -2.21193 2.08051
lowerneck 1.61313 -11.1251 -13.4435
upperneck -11.3797 -14.2535 19.6934
head -1.05592 -7.68283 8.12642
rclavicle 2.78299e-014 3.7123e-014
rhumerus -11.9801 -5.51458 -73.8323
rradius 49.1085
rwrist -15.6975
rhand -22.095 -4.52874
rfingers 7.12502
rthumb 4.31706 -34.4647
lclavicle 2.78299e-014 3.7123e-014
lhumerus -7.67833 -8.33326 58.7847
lradius 128.049
lwrist -0.870294
lhand -29.7444 -1.77493
lfingers 7.12502
lthumb -3.07058 28.1827
rfemur -66.4082 -31.3877 -4.85259
rtibia 60.6795
rfoot -7.81634 -19.2955
rtoes -22.9225
lfemur -93.9821 17.8312 -21.8436
ltibia 96.046
lfoot -22.2738 -30.5561
ltoes 22.0341
68
root 12.7476 12.6898 14.9429 -174.437 -80.6844 199.062
lowerback 59.1161 -0.584511 2.03834
upperback 12.2109 -2.33463 1.73576
thorax -7.61028 -2.26819 2.19081
lowerneck 1.49821 -11.2509 -13.394
upperneck -11.6743 -14.3746 19.9639
head -1.07888 -7.77025 8.19903
rclavicle 4.53229e-014 -5.01931e-015
rhumerus -13.2705 -4.86914 -73.6305
rradius 51.135
rwrist -18.4546
rhand -19.8506 -4.10158
rfingers 7.12502
rthumb 6.48402 -33.9823
lclavicle 4.53229e-014 -5.01931e-015
lhumerus -5.49793 -6.41328 56.5101
lradius 126.416
lwrist 0.487607
lhand -30.6258 -1.26914
lfingers 7.12502
lthumb -3.9218 28.6745
rfemur -64.9394 -31.4536 -7.40279
rtibia 57.6271
rfoot -6.13602 -19.9381
rtoes -23.3943
lfemur -93.5288 19.0608 -20.972
ltibia 96.0655
lfoot -22.5459 -32.0702
ltoes 21.1664
69
root 12.6512 12.6832 14.5181 -173.122 -82.0489 197.474
lowerback 60.4562 -1.1985 2.62342
upperback 12.0483 -2.63916 1.81119
thorax -7.82179 -2.40009 2.18263
lowerneck 1.49031 -11.377 -13.1576
upperneck -12.039 -14.5024 20.0339
head -1.1726 -7.86563 8.19302
rclavicle -8.74653e-015 2.13694e-015
rhumerus -14.6572 -3.52056 -73.1654
rradius 53.2544
rwrist -20.3858
rhand -17.6064 -4.10176
rfingers 7.12502
rthumb 8.65022 -33.9045
lclavicle -8.74653e-015 2.13694e-015
lhumerus -3.50078 -4.48552 54.4863
lradius 124.427
lwrist 1.70723
lhand -31.4182 -0.458679
lfingers 7.12502
lthumb -4.68696 29.4695
rfemur -62.8322 -31.749 -9.56414
rtibia 54.7239
rfoot -3.48856 -20.219
rtoes -29.153
lfemur -92.4118 19.43 -19.6289
ltibia 95.6802
lfoot -22.9728 -33.0352
ltoes 19.6019
70
root 12.5574 12.6631 14.082 -170.915 -82.8976 195.226
lowerback 61.3025 -1.46851 2.77564
upperback 11.9617 -2.81645 1.83506
thorax -7.93005 -2.47556 2.2402
lowerneck 1.59148 -11.4429 -13.1071
upperneck -12.4197 -14.5618 20.1571
head -1.28079 -7.92639 8.24582
rclavicle -7.15625e-015 -7.59606e-014
rhumerus -15.7429 -3.04666 -73.04
rradius 54.6966
rwrist -19.5224
rhand -15.713 -3.80498
rfingers 7.12502
rthumb 10.477 -33.5239
lclavicle -7.15625e-015 -7.59606e-014
lhumerus -2.01282 -2.48955 52.4268
lradius 122.279
lwrist 2.91587
lhand -32.4593 0.290473
lfingers 7.12502
lthumb -5.69219 30.194
rfemur -61.7318 -31.892 -10.9762
rtibia 52.3935
rfoot -2.61019 -21.2143
rtoes -26.4388
lfemur -91.5319 20.2386 -18.2837
ltibia 95.2258
lfoot -23.2119 -34.0828
ltoes 18.25
71
root 12.47 12.6336 13.6389 -166.541 -83.1902 191.115
lowerback 61.6523 -1.35984 2.39959
upperback 11.938 -2.90163 1.78603
thorax -7.96263 -2.50638 2.39115
lowerneck 1.68608 -11.4593 -13.0999
upperneck -12.7058 -14.5645 20.2546
head -1.36916 -7.95092 8.29656
rclavicle 5.08889e-014 6.90187e-014
rhumerus -16.7241 -2.16854 -73.0116
rradius 56.0151
rwrist -17.7825
rhand -14.6032 -3.72835
rfingers 7.12502
rthumb 11.5475 -33.3902
lclavicle 5.08889e-014 6.90187e-014
lhumerus -0.455125 -0.274517 50.8271
lradius 119.495
lwrist 4.07611
lhand -32.7748 0.857262
lfingers 7.12502
lthumb -5.99676 30.7524
rfemur -61.822 -32.0232 -11.6784
rtibia 50.6162
rfoot -1.91711 -22.4194
rtoes -25.1841
lfemur -90.8562 21.2838 -17.0048
ltibia 94.6553
lfoot -23.4033 -34.8682
ltoes 16.7693
72
root 12.3828 12.6075 13.1967 -162.494 -83.6221 187.193
lowerback 62.0059 -1.48804 2.27663
upperback 11.9429 -3.11005 1.70855
thorax -7.95754 -2.58753 2.45333
lowerneck 1.37509 -11.6014 -13.1917
upperneck -12.6393 -14.7434 20.3225
head -1.25489 -8.03176 8.29091
rclavicle 2.22639e-014 3.72845e-014
rhumerus -17.647 -0.797065 -72.9885
rradius 57.2828
rwrist -16.1097
rhand -14.753 -3.72375
rfingers 7.12502
rthumb 11.4029 -33.3937
lclavicle 2.22639e-014 3.72845e-014
lhumerus 0.660433 1.79157 49.1975
lradius 116.777
lwrist 5.51516
lhand -32.1713 1.54759
lfingers 7.12502
lthumb -5.41416 31.4584
rfemur -62.2899 -32.5436 -11.5966
rtibia 49.6227
rfoot -2.05838 -23.755
rtoes -23.0904
lfemur -89.9133 22.0986 -15.5797
ltibia 93.9411
lfoot -23.9075 -35.2731
ltoes 14.1186
73
root 12.2923 12.5789 12.7628 -154.449 -83.9999 179.34
lowerback 62.1606 -1.86451 2.09033
upperback 11.9382 -3.63796 1.42852
thorax -7.96186 -2.78185 2.45218
lowerneck 1.67587 -11.3632 -13.0257
upperneck -13.0623 -14.4125 20.2237
head -1.504 -7.89533 8.30628
rclavicle 4.37326e-014 -3.9173e-014
rhumerus -18.4526 0.888518 -73.2447
rradius 58.3239
rwrist -14.2105
rhand -16.209 -3.85905
rfingers 7.12502
rthumb 9.99852 -33.6016
lclavicle 4.37326e-014 -3.9173e-014
lhumerus 1.29538 3.78776 47.5352
lradius 114.075
lwrist 7.58332
lhand -31.2731 2.4875
lfingers 7.12502
lthumb -4.5469 32.4187
rfemur -63.3532 -33.6585 -11.1247
rtibia 49.3192
rfoot -2.01933 -24.1265
rtoes -23.4185
lfemur -88.8973 22.4438 -14.3633
ltibia 93.1215
lfoot -24.2559 -35.4127
ltoes 11.9416
74
root 12.2035 12.5513 12.3168 -149.541 -84.2584 174.605
lowerback 62.2826 -2.21306 2.02713
upperback 11.9236 -4.06503 1.19359
thorax -7.98079 -2.93864 2.4053
lowerneck 1.64175 -11.2556 -13.1485
upperneck -13.0817 -14.2798 20.1414
head -1.52444 -7.81961 8.30828
rclavicle -1.98785e-014 1.81391e-015
rhumerus -19.1963 2.73443 -73.5577
rradius 59.174
rwrist -12.4294
rhand -18.1059 -3.95968
rfingers 7.12502
rthumb 8.16815 -33.7818
lclavicle -1.98785e-014 1.81391e-015
lhumerus 1.4646 5.64944 46.0802
lradius 111.391
lwrist 9.89342
lhand -30.3476 3.23864
lfingers 7.12502
lthumb -3.65313 33.1871
rfemur -64.9239 -34.4331 -9.73708
rtibia 49.727
rfoot -2.21283 -24.0094
rtoes -23.3805
lfemur -87.6983 22.9424 -12.6379
ltibia 92.1695
lfoot -24.9089 -35.3482
ltoes 8.61167
75
root 12.1088 12.522 11.86 -146.672 -84.1662 171.909
lowerback 62.4256 -2.16513 1.81736
upperback 11.8437 -4.13579 1.04142
thorax -8.07926 -2.95048 2.36217
lowerneck 1.68048 -11.247 -13.1442
upperneck -13.0945 -14.2892 19.9135
head -1.55598 -7.81406 8.24099
rclavicle -2.62396e-014 -1.64991e-014
rhumerus -20.0113 4.00577 -73.8435
rradius 59.7267
rwrist -10.58
rhand -20.0229 -3.92997
rfingers 7.12502
rthumb 6.31773 -33.8158
lclavicle -2.62396e-014 -1.64991e-014
lhumerus 1.57622 7.14755 45.3273
lradius 108.621
lwrist 12.428
lhand -29.9134 3.14466
lfingers 7.12502
lthumb -3.23384 33.0999
rfemur -67.3528 -35.2327 -7.25129
rtibia 50.6429
rfoot -1.83692 -23.0204
rtoes -24.8258
lfemur -86.1486 23.663 -10.5878
ltibia 91.0622
lfoot -25.4959 -35.1053
ltoes 5.38348
76
root 12.0252 12.4881 11.3897 -146.296 -83.5809 172.437
lowerback 61.2294 -1.53909 1.09556
upperback 12.0589 -3.88005 0.959356
thorax -7.82294 -2.83161 2.43955
lowerneck 1.66645 -11.2421 -13.0787
upperneck -13.1109 -14.3066 19.5836
head -1.59328 -7.80892 8.12952
rclavicle 8.5875e-014 8.85337e-014
rhumerus -20.7241 5.30999 -74.1987
rradius 60.096
rwrist -9.16748
rhand -22.1397 -3.99302
rfingers 7.12502
rthumb 4.27389 -33.9299
lclavicle 8.5875e-014 8.85337e-014
lhumerus 1.23121 8.51999 44.835
lradius 106.126
lwrist 14.5512
lhand -29.7551 2.71543
lfingers 7.12502
lthumb -3.081 32.6729
rfemur -70.698 -35.2212 -4.87441
rtibia 52.3524
rfoot 1.05853 -18.5143
rtoes -30.4136
lfemur -85.1538 24.947 -8.64584
ltibia 89.8023
lfoot -26.1442 -34.3936
ltoes 1.03302
